PathFileType	4	(X/Y/Z)	/Users/niels/Desktop/University/Third Semester/Perception and Action/Exam/Gymnastics Motion Tracking/Code for Gym Tracking/Analyzed Data/Webcam_Backflip/id1_3_trajectory_Sports2D/id1_3_trajectory_Sports2D_px_person00.trc
DataRate	CameraRate	NumFrames	NumMarkers	Units	OrigDataRate	OrigDataStartFrame	OrigNumFrames
29.87551867219917	29.87551867219917	11	22	m	29.87551867219917	30	241
Frame#	Time	Hip			RHip			RKnee			RAnkle			RBigToe			RSmallToe			RHeel			LHip			LKnee			LAnkle			LBigToe			LSmallToe			LHeel			Neck			Head			Nose			RShoulder			RElbow			RWrist			LShoulder			LElbow			LWrist		
		X1	Y1	Z1	X2	Y2	Z2	X3	Y3	Z3	X4	Y4	Z4	X5	Y5	Z5	X6	Y6	Z6	X7	Y7	Z7	X8	Y8	Z8	X9	Y9	Z9	X10	Y10	Z10	X11	Y11	Z11	X12	Y12	Z12	X13	Y13	Z13	X14	Y14	Z14	X15	Y15	Z15	X16	Y16	Z16	X17	Y17	Z17	X18	Y18	Z18	X19	Y19	Z19	X20	Y20	Z20	X21	Y21	Z21	X22	Y22	Z22
30	1.0041666666666667	0.9189272792287959	-0.6061691669603576	0.0	0.9181825807528611	-0.6020908102326393	0.0	0.922811116620992	-0.7074571497700928	0.0	0.9065677978269334	-0.8165385071488613	0.0	0.9512971997429704	-0.8327985992964626	0.0	0.943442814412539	-0.8362027969380411	0.0	0.8943803727621408	-0.8309589281279739	0.0	0.922231882442867	-0.6019224243177256	0.0	0.9229358626157297	-0.7047728909777875	0.0	0.9086071658232997	-0.8098192517148944	0.0	0.9518768090810233	-0.8292998297761341	0.0	0.9465757278315945	-0.8255441198802433	0.0	0.8923195106220647	-0.8239699303078813	0.0	0.9616740002941654	-0.45582536922217676	0.0	1.0087378617159881	-0.39507520885323544	0.0	1.0071583159184687	-0.43615046231632804	0.0	0.948287620513036	-0.47178407140797285	0.0	0.8955632996748958	-0.5191077504619268	0.0	0.8553526290482029	-0.572966194785311	0.0	0.9495730836312307	-0.46922219830761575	0.0	0.8951109201221943	-0.5168668936726235	0.0	0.8611423638945191	-0.5686602526891689	0.0
31	1.037638888888889	0.917995574813401	-0.6054210841986224	0.0	0.9167467306402792	-0.6007315000052665	0.0	0.9225820562391158	-0.7075661002492516	0.0	0.9066830192564295	-0.8166406263044262	0.0	0.9503685039473297	-0.8336826527944029	0.0	0.9424552566584741	-0.8371881976265182	0.0	0.8941996427907105	-0.8305820690396288	0.0	0.9216313907368234	-0.600249873122162	0.0	0.92285210826438	-0.7044296771161491	0.0	0.9090084290676143	-0.8092152543318556	0.0	0.9507107133310229	-0.8293855308858823	0.0	0.9461759050633649	-0.8251153260567572	0.0	0.8917236488649546	-0.8232846508904161	0.0	0.9643656398908982	-0.45905205737337335	0.0	1.0155563946825528	-0.39794362324521426	0.0	1.0117681544992527	-0.4387733329616217	0.0	0.951203557975366	-0.4719192979116386	0.0	0.8901962026323251	-0.5058841938645092	0.0	0.8382859530360727	-0.5470132895825419	0.0	0.9530511794178288	-0.47039590116052776	0.0	0.8907119931403664	-0.5044264180167785	0.0	0.845532125201218	-0.544947315239469	0.0
32	1.0711111111111111	0.9163801416526159	-0.603793274167333	0.0	0.914832197933654	-0.5984199208409051	0.0	0.9220625899114276	-0.706657827936734	0.0	0.9067735840025676	-0.8156447668063715	0.0	0.9498243786611903	-0.833590167428423	0.0	0.9417230500171748	-0.8373097877657601	0.0	0.8940813242422709	-0.8293396765858886	0.0	0.9201386460721453	-0.5976043217327484	0.0	0.9224449870382039	-0.7032322117940829	0.0	0.9093789547540235	-0.8077671671159965	0.0	0.9493597268151193	-0.8287531941640408	0.0	0.9454529042815979	-0.8240549939231526	0.0	0.8911784524759188	-0.821922738590851	0.0	0.9665748452981013	-0.46112232168742245	0.0	1.021628080946091	-0.4004655580995904	0.0	1.0160583968986445	-0.4408375917864383	0.0	0.953841071419844	-0.4708247846796455	0.0	0.8877573473945185	-0.49130603684974894	0.0	0.8275856783449519	-0.5189686739973555	0.0	0.9559201052063726	-0.4705080054988967	0.0	0.8890404733698597	-0.491289411796142	0.0	0.8356685305215786	-0.5194172959131261	0.0
33	1.1045833333333333	0.9141343584784871	-0.6011410746755373	0.0	0.9123895937994226	-0.5950949238266213	0.0	0.9215405765521696	-0.7045347990973341	0.0	0.906848592158538	-0.8134471106211764	0.0	0.9496674039236176	-0.8323177951521624	0.0	0.9413222790731393	-0.8363124866166061	0.0	0.8940698602941435	-0.8271276994993979	0.0	0.9177071657259273	-0.594002045739709	0.0	0.9219261668217722	-0.7009489427757899	0.0	0.9097047835818348	-0.8053373173195891	0.0	0.9481216690142997	-0.8270894532967845	0.0	0.9445458903546889	-0.8221767920116139	0.0	0.890709052644933	-0.8198278194918904	0.0	0.9685937107033787	-0.4619317565192487	0.0	1.027013084846217	-0.4027678163412585	0.0	1.0200530981386409	-0.4423840995655295	0.0	0.95628745367688	-0.46867065836330196	0.0	0.8876993132242018	-0.4765833251881526	0.0	0.822515482769973	-0.49141885247195644	0.0	0.958534360541093	-0.46952140850842217	0.0	0.8896537288267619	-0.47857225993546687	0.0	0.8310302628810062	-0.49427480468774654	0.0
34	1.1380555555555556	0.9112522243957987	-0.5973442552001393	0.0	0.9093648722350889	-0.590796733252653	0.0	0.9214601557503579	-0.7011279673818627	0.0	0.9069338210127184	-0.8100456846489827	0.0	0.9498643798513074	-0.8297715000889999	0.0	0.9412603681430302	-0.8340177271242523	0.0	0.8941489852982288	-0.8238449829603175	0.0	0.9144340715085064	-0.5895223682510232	0.0	0.9217023976259029	-0.6974408403625928	0.0	0.9099828052964405	-0.8017927384842541	0.0	0.9473327789449809	-0.8240787694911808	0.0	0.9437351340638285	-0.8192641526178942	0.0	0.8902789710617004	-0.8168795603942333	0.0	0.9707235042675645	-0.4617300379433541	0.0	1.031881036212867	-0.4050565078618847	0.0	1.0238020528275458	-0.4435473156960343	0.0	0.958644477143849	-0.46583272888954863	0.0	0.8893445530258537	-0.46273153603417017	0.0	0.821947238321866	-0.4663233104466191	0.0	0.9611921767417041	-0.46767974899984704	0.0	0.8919064322796074	-0.4670365099973398	0.0	0.8307005533860813	-0.4711394649079855	0.0
35	1.1715277777777777	0.9077772592099377	-0.5924714130991109	0.0	0.9058002329752368	-0.5857648985904402	0.0	0.922307618316838	-0.6965375960704409	0.0	0.9070790787471732	-0.8055086857560345	0.0	0.9503451584038523	-0.8260202785062829	0.0	0.9414574107843282	-0.8303804398149701	0.0	0.8943113700015858	-0.8194248373238469	0.0	0.9106249117569407	-0.5844035546965194	0.0	0.9223282383537214	-0.6927875537804529	0.0	0.9102323812956004	-0.7971292146820791	0.0	0.9472699203703345	-0.8197100800902083	0.0	0.9433739033570686	-0.8153139602440123	0.0	0.8898811556855967	-0.8129769051955721	0.0	0.97316634494488	-0.4609727340503048	0.0	1.036329348421115	-0.40758182268418025	0.0	1.027381715759271	-0.44451229866109926	0.0	0.9609523216926409	-0.462800629382075	0.0	0.8921698314548105	-0.4505482648267195	0.0	0.8246774711730366	-0.4449445084736828	0.0	0.9639952571443614	-0.4654294220742299	0.0	0.895144647104981	-0.4570854514492478	0.0	0.8335986557149212	-0.4510279057278116	0.0
36	1.205	0.9038799170259948	-0.58691289279579	0.0	0.9018910937846772	-0.5804609654581455	0.0	0.9244631962282891	-0.6910114599841422	0.0	0.9073499261366152	-0.7999912703784856	0.0	0.9510414655117989	-0.8212975538125838	0.0	0.9418264246265494	-0.825546232554728	0.0	0.8945734626592347	-0.8139211276106209	0.0	0.906767523433767	-0.5791146697814464	0.0	0.9243281133312703	-0.6873056462466187	0.0	0.9104682226988106	-0.7915776690547414	0.0	0.9480644393628935	-0.8144213873590364	0.0	0.9437874913468068	-0.8106690920393294	0.0	0.8895827194311545	-0.8081408986546152	0.0	0.9759313746216295	-0.4601691520007431	0.0	1.0403788948572579	-0.4105705927962852	0.0	1.0308756301449562	-0.44553749960457883	0.0	0.9631812322361764	-0.4601286328636027	0.0	0.8958198673085244	-0.4406387719316469	0.0	0.8295103281247137	-0.4278856677005515	0.0	0.966826525014392	-0.46330834979601254	0.0	0.8987799578459638	-0.44887460141571917	0.0	0.8384990222172467	-0.4344300783888348	0.0
37	1.2384722222222222	0.8998023018964333	-0.581371917309468	0.0	0.8979452778439404	-0.5755371575993086	0.0	0.9280629262390375	-0.6849368374020948	0.0	0.9078169022922805	-0.7937770818741537	0.0	0.9519325775946498	-0.8159820797815012	0.0	0.9423755624709435	-0.8198973061208271	0.0	0.894957709527237	-0.8075944658458583	0.0	0.9032977638482736	-0.5743235567189134	0.0	0.9279400951517085	-0.681451825276335	0.0	0.910674087450784	-0.7856015313926556	0.0	0.9496202566522606	-0.8089667815315235	0.0	0.9451007432065508	-0.8059186065219126	0.0	0.8895071757120703	-0.8025642055769228	0.0	0.9788519056488063	-0.4598209248518466	0.0	1.0439868204097835	-0.4141549526962103	0.0	1.0342988174530572	-0.4469740506834723	0.0	0.9652672965926973	-0.45843310379350016	0.0	0.8998794337603753	-0.43344159775537766	0.0	0.8351579120432691	-0.4152807512329477	0.0	0.9694479665571804	-0.461901566659359	0.0	0.9022946426512316	-0.44253970938464454	0.0	0.8439794307595607	-0.4215228630681889	0.0
38	1.2719444444444445	0.8957539701578833	-0.5767090834081671	0.0	0.8942728206942339	-0.5717629817114446	0.0	0.9329375877694079	-0.6788474383626102	0.0	0.9085487997807945	-0.7872783888685081	0.0	0.9530046485835582	-0.810560999043764	0.0	0.9431838840320482	-0.8140065430288367	0.0	0.8954975790913142	-0.8009227208568435	0.0	0.9002980185346675	-0.5707549957929339	0.0	0.9329136655918596	-0.6757017613229108	0.0	0.9108281678411146	-0.7797207619299188	0.0	0.9515754863683332	-0.8041062910275305	0.0	0.9470525265300641	-0.8016297609084871	0.0	0.8897822109208482	-0.7965535905748987	0.0	0.9816892995765291	-0.460420827582339	0.0	1.047025499594493	-0.41838533992399957	0.0	1.0375185435086665	-0.44924864435079404	0.0	0.9671814202148705	-0.45834357428786304	0.0	0.9037523869130412	-0.42929098272840366	0.0	0.8402902346734658	-0.40709673564005033	0.0	0.9716091282032902	-0.4617960465327022	0.0	0.9052791401316218	-0.4383762492199543	0.0	0.8486222711214432	-0.41247243313791027	0.0
39	1.3054166666666667	0.8919043532052194	-0.5737683732084116	0.0	0.8910794307676269	-0.5699185419232655	0.0	0.9386684655810239	-0.6734123815104777	0.0	0.9095882396406179	-0.7810599313691848	0.0	0.9541780549176441	-0.805593054257796	0.0	0.944257934413878	-0.8085453387730883	0.0	0.8962152711183148	-0.794575358728787	0.0	0.8975253099827071	-0.5690634098461069	0.0	0.9385865725787403	-0.6705492306387048	0.0	0.9109684400461476	-0.774362310323365	0.0	0.9534271700208864	-0.800354050775581	0.0	0.9490533028291753	-0.7981769031370108	0.0	0.8904569560005723	-0.7905244567268701	0.0	0.9842303320637869	-0.4624468772878391	0.0	1.0493241235936195	-0.42331232454748424	0.0	1.0402859973101848	-0.4527558510581087	0.0	0.9689486255949621	-0.46037072712160926	0.0	0.9068004855873837	-0.4284912598281827	0.0	0.8438302228610706	-0.4034604089984097	0.0	0.9731725484863426	-0.46351752758980475	0.0	0.9075114608132517	-0.4369036622665395	0.0	0.8514700714134824	-0.4077407028824554	0.0
40	1.338888888888889	0.8884463066799307	-0.5732621468171146	0.0	0.8884440691200449	-0.5706657346406894	0.0	0.9447396922203242	-0.6694134345566433	0.0	0.9109031682937547	-0.7759020815025647	0.0	0.9552749606361441	-0.8017170296130315	0.0	0.9454093866511719	-0.8042467512258	0.0	0.8970706641673394	-0.7893724698427723	0.0	0.894764237816641	-0.5697743255826935	0.0	0.9442492333085325	-0.6666213978190223	0.0	0.9111997828641857	-0.7699631689854511	0.0	0.9547637253524708	-0.7979372216534996	0.0	0.9504916366921408	-0.7957740729862769	0.0	0.8914290551544207	-0.7851031431552176	0.0	0.9863681695115094	-0.46632433374232357	0.0	1.0507616017028607	-0.4290275947121821	0.0	1.0423957425067478	-0.4576935284876987	0.0	0.9705715739308021	-0.46479500245848865	0.0	0.90857249451399	-0.43137343389536875	0.0	0.845263983717363	-0.4049068447184243	0.0	0.9742264929635164	-0.46747843669607353	0.0	0.9089357413902124	-0.43887339425566096	0.0	0.8523310023171448	-0.40826356664110214	0.0
